<svg xmlns="http://www.w3.org/2000/svg" version="1.1" xmlns:xlink="http://www.w3.org/1999/xlink" xmlns:svgjs="http://svgjs.com/svgjs" width="512" height="512" x="0" y="0" viewBox="0 0 24 24" style="enable-background:new 0 0 512 512" xml:space="preserve"><g><circle cx="14" cy="6" r="6" fill="#343a40" data-original="#000000" opacity="1"></circle><path d="M17 14h-6a7.008 7.008 0 0 0-7 7v2a1 1 0 0 0 1 1h18a1 1 0 0 0 1-1v-2a7.008 7.008 0 0 0-7-7zM4 7a1 1 0 0 0-1 1v2H1a1 1 0 0 0 0 2h2v2a1 1 0 0 0 2 0v-2h2a1 1 0 0 0 0-2H5V8a1 1 0 0 0-1-1z" fill="#343a40" data-original="#000000" opacity="1"></path></g></svg>