<svg width="5" height="5" viewBox="0 0 40 40" fill="none" xmlns="http://www.w3.org/2000/svg">
<path fill-rule="evenodd" clip-rule="evenodd" d="M0.121205 0.0787815C0.145967 0.122143 1.41884 1.94433 2.94978 4.12815C4.48072 6.31198 5.75371 8.13479 5.77859 8.17878C5.82829 8.26677 5.71281 8.43044 5.1436 9.07859C4.94427 9.30555 4.5001 9.81605 4.15646 10.213C1.8682 12.8567 0.720853 14.1788 0.207486 14.7637L0 15H0.658566H1.31713L3.8676 12.0695C5.27042 10.4577 6.43898 9.15271 6.46451 9.16954C6.48998 9.18637 7.42441 10.505 8.54097 12.1L10.571 15H12.8062C14.4979 15 15.031 14.9821 14.9986 14.9263C14.9751 14.8857 13.6476 12.9904 12.0485 10.7147C10.4494 8.43882 9.0944 6.50074 9.03732 6.40777L8.93349 6.2388L9.5167 5.56198C9.83742 5.18969 10.1265 4.85408 10.159 4.81613C10.1915 4.77819 10.5125 4.40931 10.8723 3.99649C11.2321 3.58361 12.0543 2.63603 12.6993 1.89076C13.3444 1.14548 13.9796 0.415147 14.111 0.267857L14.3498 0L13.6727 0.00630243L12.9956 0.0125421L12.6141 0.463235C12.4043 0.71105 11.922 1.26838 11.5422 1.70168C11.1624 2.13498 10.7623 2.595 10.6531 2.72389C10.1529 3.31424 8.32645 5.40876 8.32007 5.39924C8.31617 5.39345 7.58775 4.35347 6.70137 3.08824C5.81499 1.823 4.96714 0.611849 4.81727 0.396807L4.54484 0.00573527L2.31048 0.00289925C0.537773 0.000567317 0.0854523 0.0162605 0.121205 0.0787815Z" fill="white"/>
</svg>
