<svg xmlns="http://www.w3.org/2000/svg" version="1.1" xmlns:xlink="http://www.w3.org/1999/xlink" xmlns:svgjs="http://svgjs.com/svgjs" width="512" height="512" x="0" y="0" viewBox="0 0 512.001 512.001" style="enable-background:new 0 0 512 512" xml:space="preserve" class=""><g><path d="M165.196 25.555a8.33 8.33 0 0 0-10.955-4.328 256.25 256.25 0 0 0-26.559 13.409 8.328 8.328 0 0 0-3.023 11.385 8.324 8.324 0 0 0 11.385 3.024 239.264 239.264 0 0 1 24.823-12.533 8.331 8.331 0 0 0 4.329-10.957zM329.016 10.767a255.213 255.213 0 0 0-28.983-6.791c-4.529-.785-8.845 2.251-9.63 6.784a8.328 8.328 0 0 0 6.783 9.631 238.729 238.729 0 0 1 27.085 6.346c.792.235 1.59.347 2.376.347a8.33 8.33 0 0 0 2.369-16.317zM270.468.605a260.738 260.738 0 0 0-14.466-.403h-.028c-5.069 0-10.202.15-15.254.449a8.33 8.33 0 0 0-7.825 8.805 8.327 8.327 0 0 0 8.804 7.825c4.728-.279 9.531-.42 14.276-.42H256c4.509 0 9.064.127 13.539.377a8.31 8.31 0 0 0 8.781-7.852 8.33 8.33 0 0 0-7.852-8.781zM510.231 225.963a256.082 256.082 0 0 0-5.195-29.308c-1.067-4.476-5.558-7.242-10.034-6.173a8.33 8.33 0 0 0-6.172 10.034 239.543 239.543 0 0 1 4.857 27.395 8.331 8.331 0 0 0 9.246 7.299 8.331 8.331 0 0 0 7.298-9.247zM498.968 305.202c-4.471-1.055-8.964 1.714-10.021 6.194a238.727 238.727 0 0 1-7.971 26.669 8.33 8.33 0 0 0 7.828 11.18 8.333 8.333 0 0 0 7.828-5.484 255.202 255.202 0 0 0 8.53-28.54 8.33 8.33 0 0 0-6.194-10.019zM383.643 34.248a255.901 255.901 0 0 0-26.624-13.338c-4.229-1.822-9.126.136-10.942 4.363a8.33 8.33 0 0 0 4.365 10.942 239.485 239.485 0 0 1 24.884 12.467 8.325 8.325 0 0 0 11.376-3.058 8.329 8.329 0 0 0-3.059-11.376zM31.103 338.289a238.505 238.505 0 0 1-7.993-26.645 8.33 8.33 0 0 0-16.21 3.844 255.053 255.053 0 0 0 8.554 28.516 8.332 8.332 0 0 0 7.825 5.475 8.331 8.331 0 0 0 7.824-11.19zM220.814 10.872a8.329 8.329 0 0 0-9.652-6.754 255.317 255.317 0 0 0-28.963 6.885 8.33 8.33 0 0 0-5.579 10.375 8.334 8.334 0 0 0 7.974 5.934c.794 0 1.602-.114 2.402-.355a238.69 238.69 0 0 1 27.064-6.434 8.328 8.328 0 0 0 6.754-9.651zM503.67 247.347a8.328 8.328 0 0 0-8.329 8.329v.527c0 9.278-.537 18.627-1.595 27.788a8.33 8.33 0 0 0 16.549 1.914 259.668 259.668 0 0 0 1.706-29.701v-.527a8.332 8.332 0 0 0-8.331-8.33zM307.331 498.689a8.328 8.328 0 0 0-9.644-6.762 240.925 240.925 0 0 1-27.642 3.211 8.33 8.33 0 0 0-7.834 8.796 8.328 8.328 0 0 0 8.797 7.834 257.22 257.22 0 0 0 29.56-3.435 8.327 8.327 0 0 0 6.763-9.644zM242.205 495.153a241.05 241.05 0 0 1-27.642-3.182 8.33 8.33 0 1 0-2.866 16.411 257.605 257.605 0 0 0 29.564 3.404 8.33 8.33 0 1 0 .944-16.633zM187.484 485.595a238.16 238.16 0 0 1-26.159-9.505c-4.223-1.82-9.126.126-10.946 4.352a8.327 8.327 0 0 0 4.351 10.946 255.266 255.266 0 0 0 27.995 10.17c.794.237 1.595.35 2.384.35a8.337 8.337 0 0 0 7.98-5.951 8.333 8.333 0 0 0-5.605-10.362zM16.789 191.246c-4.478-1.055-8.963 1.725-10.015 6.205a256.366 256.366 0 0 0-5.101 29.323 8.328 8.328 0 0 0 8.287 9.277c4.176 0 7.779-3.134 8.264-7.382a239.409 239.409 0 0 1 4.769-27.41 8.328 8.328 0 0 0-6.204-10.013zM361.85 480.335a8.329 8.329 0 0 0-10.951-4.339 238.724 238.724 0 0 1-26.138 9.527 8.332 8.332 0 0 0 4.78 15.96 255.24 255.24 0 0 0 27.971-10.196 8.332 8.332 0 0 0 4.338-10.952zM18.283 284.244a242.871 242.871 0 0 1-1.623-27.787 8.329 8.329 0 0 0-8.329-8.321h-.009a8.33 8.33 0 0 0-8.321 8.338c.01 9.915.594 19.908 1.736 29.7a8.33 8.33 0 1 0 16.546-1.93zM133.128 117.532a7.514 7.514 0 1 0-14.224 4.855 45.158 45.158 0 0 1 2.412 14.62v20.071a2.676 2.676 0 0 1-2.674 2.674H22.404a2.676 2.676 0 0 1-2.674-2.674v-20.071c0-12.926 5.551-25.172 15.067-33.706 8.051 10.692 20.846 17.62 35.231 17.62 24.307 0 44.081-19.775 44.081-44.081S94.335 32.758 70.03 32.758 25.949 52.533 25.949 76.839c0 4.421.661 8.688 1.878 12.717-14.532 11.392-23.125 28.891-23.125 47.451v20.071c0 9.76 7.941 17.703 17.704 17.703h96.238c9.762 0 17.704-7.941 17.704-17.704v-20.071a60.2 60.2 0 0 0-3.22-19.474zM70.03 47.787c16.019 0 29.052 13.032 29.052 29.052S86.05 105.891 70.03 105.891c-16.018 0-29.051-13.032-29.051-29.052S54.011 47.787 70.03 47.787zM504.079 117.532a7.514 7.514 0 1 0-14.224 4.855c1.6 4.69 2.412 9.61 2.412 14.62v20.071a2.676 2.676 0 0 1-2.674 2.674h-96.238a2.676 2.676 0 0 1-2.674-2.674v-20.071c0-12.926 5.551-25.172 15.067-33.706 8.051 10.692 20.846 17.62 35.231 17.62 24.306 0 44.081-19.775 44.081-44.081s-19.775-44.081-44.081-44.081c-24.307 0-44.08 19.775-44.08 44.081 0 4.421.661 8.688 1.878 12.717-14.531 11.392-23.124 28.89-23.124 47.45v20.071c0 9.762 7.941 17.704 17.704 17.704h96.238c9.762 0 17.704-7.941 17.704-17.704v-20.071a60.201 60.201 0 0 0-3.22-19.475zm-63.1-69.745c16.019 0 29.052 13.032 29.052 29.052s-13.032 29.052-29.052 29.052c-16.018 0-29.051-13.032-29.051-29.052s13.033-29.052 29.051-29.052zM504.078 422.401c-1.34-3.93-5.616-6.028-9.538-4.686a7.514 7.514 0 0 0-4.685 9.54 45.18 45.18 0 0 1 2.412 14.62v20.071a2.676 2.676 0 0 1-2.674 2.674h-96.238a2.676 2.676 0 0 1-2.674-2.674v-20.071c0-12.926 5.551-25.172 15.067-33.706 8.051 10.692 20.846 17.62 35.231 17.62 24.306 0 44.081-19.775 44.081-44.081 0-24.307-19.775-44.081-44.081-44.081-24.307 0-44.08 19.775-44.08 44.081 0 4.421.661 8.688 1.878 12.717-14.532 11.392-23.125 28.891-23.125 47.451v20.071c0 9.762 7.941 17.704 17.704 17.704h96.238c9.762 0 17.704-7.941 17.704-17.704v-20.071a60.201 60.201 0 0 0-3.22-19.475zm-63.099-69.746c16.019 0 29.052 13.032 29.052 29.052s-13.032 29.052-29.052 29.052c-16.018 0-29.051-13.032-29.051-29.052s13.033-29.052 29.051-29.052zM133.128 422.401c-1.341-3.93-5.618-6.028-9.538-4.686a7.514 7.514 0 0 0-4.685 9.54 45.154 45.154 0 0 1 2.412 14.62v20.071a2.676 2.676 0 0 1-2.674 2.674H22.405a2.676 2.676 0 0 1-2.674-2.674v-20.071c0-12.926 5.551-25.172 15.067-33.706 8.051 10.692 20.846 17.62 35.231 17.62 24.306 0 44.081-19.775 44.081-44.081 0-24.307-19.775-44.081-44.081-44.081s-44.08 19.775-44.08 44.081c0 4.421.661 8.688 1.878 12.717-14.532 11.392-23.125 28.891-23.125 47.451v20.071c0 9.762 7.942 17.704 17.704 17.704h96.238c9.762 0 17.704-7.941 17.704-17.704v-20.071a60.201 60.201 0 0 0-3.22-19.475zM70.03 352.655c16.019 0 29.052 13.032 29.052 29.052S86.05 410.759 70.03 410.759c-16.018 0-29.051-13.032-29.051-29.052s13.032-29.052 29.051-29.052zM327.079 173.165h-79.966c-34.555 0-63.302 25.276-68.761 58.308h-2.728c-31.169 0-56.527 26.077-56.527 58.13 0 22.581 12.503 42.804 32.13 52.438 9.647 23.368 39.746 34.576 41.079 35.062a7.518 7.518 0 0 0 8.087-1.954 7.514 7.514 0 0 0 1.329-8.212c-3.025-6.662-4.726-13.096-5.086-19.204h42.004c23.233 0 43.229-14.493 51.909-35.146h11.965c-.211 8.229-2.444 16.927-6.672 25.947a7.514 7.514 0 0 0 9.305 10.275c1.669-.589 39.604-14.269 51.246-42.683 24.652-11.403 40.397-35.871 40.397-63.249 0-38.44-31.272-69.712-69.711-69.712zm20.547 120.385c-2.035.827-3.627 2.473-4.297 4.565-4.217 13.166-17.054 22.967-27.645 29.083 1.82-7.834 2.32-15.497 1.485-22.918-.43-3.819-3.63-6.724-7.473-6.724h-62.582a54.288 54.288 0 0 1-20.363-3.947c-2.788-1.125-5.973-.512-8.099 1.614l-.107.107c-3.779 3.779-2.458 10.176 2.496 12.185a69.246 69.246 0 0 0 26.072 5.07h26.604c-7.359 12.077-20.329 20.116-35.078 20.116h-49.317c-3.81 0-7.044 2.853-7.464 6.64-.569 5.134-.395 10.402.516 15.775-7.295-4.816-15.082-11.775-17.944-20.686-.694-2.162-2.226-3.976-4.32-4.853-15.786-6.617-25.985-22.309-25.985-39.974 0-23.765 18.615-43.1 41.498-43.1h1.876a69.132 69.132 0 0 0 4.927 22.329c2.004 4.971 8.406 6.316 12.196 2.526l.11-.11c2.117-2.117 2.742-5.289 1.625-8.067a54.343 54.343 0 0 1-3.911-21.523c.657-29.847 25.587-53.462 55.441-53.462h78.273c30.175 0 55.695 24.684 55.6 54.858-.07 22.293-13.454 42.101-34.134 50.496z" fill="#343a40" data-original="#000000" class="" opacity="1"></path></g></svg>